<svg width="21" height="21" viewBox="0 0 21 21" fill="none" xmlns="http://www.w3.org/2000/svg">
<path d="M19.7466 5.35742C20.2427 4.9524 20.5157 4.41451 20.5157 3.84234C20.5157 3.27017 20.2427 2.73228 19.7466 2.32726L17.6649 0.627889C17.1688 0.222869 16.5099 0 15.8091 0C15.1082 0 14.4493 0.222869 13.9545 0.626818L0 11.9835V16.7141H5.79206L19.7466 5.35742ZM15.8091 2.14297L17.892 3.84127L15.8051 5.5385L13.7235 3.8402L15.8091 2.14297ZM2.625 14.5711V12.8728L11.865 5.35313L13.9466 7.0525L4.70794 14.5711H2.625ZM0 18.857H21V21H0V18.857Z" fill="#F6F7F8"/>
</svg>
