<svg width="1000" height="1000" viewBox="0 0 1000 1000" fill="none" xmlns="http://www.w3.org/2000/svg">
<path d="M1000 495.5C1000 561.752 987.067 627.355 961.94 688.564C936.812 749.773 899.983 805.388 853.553 852.235C807.124 899.083 752.004 936.244 691.342 961.597C630.679 986.951 565.661 1000 500 1000C434.339 1000 369.321 986.951 308.658 961.597C247.995 936.244 192.876 899.083 146.447 852.235C100.017 805.388 63.1876 749.773 38.0602 688.564C12.9329 627.355 -5.74026e-06 561.752 0 495.5L500 495.5H1000Z" fill="url(#paint0_linear_125_1378)"/>
<path d="M170 224H154V240C154 376.326 221.277 464.144 296.504 528.183C330.246 556.908 365.921 581.132 397.696 602.707C401.108 605.023 404.475 607.309 407.789 609.567C442.675 633.331 470.73 653.323 487.823 673.378L500.124 687.811L512.28 673.257C528.965 653.281 556.774 633.324 591.591 609.559C595.233 607.073 598.94 604.552 602.702 601.994C634.158 580.607 669.47 556.598 702.919 528.196C778.312 464.179 846 376.36 846 240V223.965L829.965 224C818.567 224.025 807.527 224.025 796.838 224.024C753.7 224.024 716.292 224.023 684.223 225.653C644.259 227.685 610.756 232.294 583.203 243.489C554.963 254.964 533.51 273.129 517.462 300.811C510.491 312.835 504.604 326.541 499.569 342.092C494.023 326.287 487.469 312.379 479.736 300.193C462.18 272.528 439.067 254.566 410.006 243.221C381.493 232.088 347.579 227.454 308.374 225.443C276.417 223.803 239.862 223.878 198.734 223.962C189.392 223.981 179.814 224 170 224Z" fill="url(#paint1_linear_125_1378)" stroke="white" stroke-width="32"/>
<circle cx="500" cy="764" r="30" fill="white"/>
<defs>
<linearGradient id="paint0_linear_125_1378" x1="661" y1="495" x2="122.747" y2="840.564" gradientUnits="userSpaceOnUse">
<stop stop-color="#3C5CFF"/>
<stop offset="0.491394" stop-color="#3D47A9" stop-opacity="0.5"/>
<stop offset="1" stop-color="#3D47A9" stop-opacity="0"/>
</linearGradient>
<linearGradient id="paint1_linear_125_1378" x1="500" y1="237.5" x2="500" y2="644.5" gradientUnits="userSpaceOnUse">
<stop stop-opacity="0"/>
<stop offset="1" stop-color="white"/>
</linearGradient>
</defs>
</svg>
