<svg width="70" height="70" viewBox="0 0 70 70" fill="none" xmlns="http://www.w3.org/2000/svg">
<path d="M70 34.685C70 39.3226 69.0947 43.9149 67.3358 48.1995C65.5769 52.4841 62.9988 56.3772 59.7487 59.6565C56.4987 62.9358 52.6403 65.5371 48.3939 67.3118C44.1475 69.0866 39.5963 70 35 70C30.4037 70 25.8525 69.0866 21.6061 67.3118C17.3597 65.5371 13.5013 62.9358 10.2513 59.6565C7.00121 56.3772 4.42313 52.4841 2.66422 48.1995C0.905301 43.9149 -4.01818e-07 39.3226 0 34.685L35 34.685H70Z" fill="url(#paint0_linear_152_1721)"/>
<path d="M11.8997 15.68H10.7797V16.8C10.7797 26.3428 15.489 32.4901 20.7549 36.9728C23.1169 38.9835 25.6142 40.6792 27.8384 42.1895C28.0772 42.3516 28.3129 42.5117 28.5449 42.6697C30.9869 44.3332 32.9508 45.7326 34.1472 47.1365L35.0083 48.1468L35.8593 47.128C37.0272 45.7297 38.9738 44.3327 41.411 42.6691C41.6659 42.4951 41.9254 42.3187 42.1888 42.1396C44.3907 40.6425 46.8626 38.9619 49.204 36.9738C54.4815 32.4926 59.2197 26.3452 59.2197 16.8V15.6776L58.0972 15.68C57.2994 15.6817 56.5265 15.6817 55.7783 15.6817C52.7587 15.6817 50.1401 15.6817 47.8953 15.7958C45.0978 15.9379 42.7526 16.2606 40.8239 17.0443C38.847 17.8475 37.3454 19.1191 36.222 21.0568C35.734 21.8984 35.322 22.8579 34.9695 23.9465C34.5813 22.8401 34.1225 21.8665 33.5812 21.0135C32.3522 19.0769 30.7343 17.8197 28.7001 17.0255C26.7041 16.2462 24.3302 15.9218 21.5859 15.781C19.3488 15.6663 16.79 15.6715 13.911 15.6773C13.2571 15.6787 12.5866 15.68 11.8997 15.68Z" fill="url(#paint1_linear_152_1721)" stroke="white" stroke-width="2.24"/>
<circle cx="34.9998" cy="53.48" r="2.1" fill="white"/>
<defs>
<linearGradient id="paint0_linear_152_1721" x1="46.27" y1="34.65" x2="8.59227" y2="58.8395" gradientUnits="userSpaceOnUse">
<stop stop-color="#3C5CFF"/>
<stop offset="0.491394" stop-color="#3D47A9" stop-opacity="0.5"/>
<stop offset="1" stop-color="#3D47A9" stop-opacity="0"/>
</linearGradient>
<linearGradient id="paint1_linear_152_1721" x1="34.9997" y1="16.625" x2="34.9997" y2="45.115" gradientUnits="userSpaceOnUse">
<stop stop-opacity="0"/>
<stop offset="1" stop-color="white"/>
</linearGradient>
</defs>
</svg>
