<svg width="787" height="364" viewBox="0 0 787 364" fill="none" xmlns="http://www.w3.org/2000/svg">
<line x1="225.5" y1="6.55671e-08" x2="225.5" y2="364" stroke="url(#paint0_linear_125_1433)" stroke-width="3"/>
<line x1="113.5" y1="6.55671e-08" x2="113.5" y2="364" stroke="url(#paint1_linear_125_1433)" stroke-width="3"/>
<line x1="1.5" y1="6.55671e-08" x2="1.49998" y2="364" stroke="url(#paint2_linear_125_1433)" stroke-width="3"/>
<line x1="337.5" y1="6.55671e-08" x2="337.5" y2="364" stroke="url(#paint3_linear_125_1433)" stroke-width="3"/>
<line x1="449.5" y1="6.55671e-08" x2="449.5" y2="364" stroke="url(#paint4_linear_125_1433)" stroke-width="3"/>
<line x1="561.5" y1="6.55671e-08" x2="561.5" y2="364" stroke="url(#paint5_linear_125_1433)" stroke-width="3"/>
<line x1="673.5" y1="6.55671e-08" x2="673.5" y2="364" stroke="url(#paint6_linear_125_1433)" stroke-width="3"/>
<line x1="785.5" y1="6.55671e-08" x2="785.5" y2="364" stroke="url(#paint7_linear_125_1433)" stroke-width="3"/>
<defs>
<linearGradient id="paint0_linear_125_1433" x1="223.5" y1="-2.18557e-08" x2="223.5" y2="364" gradientUnits="userSpaceOnUse">
<stop stop-color="#262626"/>
<stop offset="0.505" stop-color="white"/>
<stop offset="1" stop-color="#262626"/>
</linearGradient>
<linearGradient id="paint1_linear_125_1433" x1="111.5" y1="-2.18557e-08" x2="111.5" y2="364" gradientUnits="userSpaceOnUse">
<stop stop-color="#262626"/>
<stop offset="0.505" stop-color="white"/>
<stop offset="1" stop-color="#262626"/>
</linearGradient>
<linearGradient id="paint2_linear_125_1433" x1="-0.5" y1="-2.18557e-08" x2="-0.500016" y2="364" gradientUnits="userSpaceOnUse">
<stop stop-color="#262626"/>
<stop offset="0.505" stop-color="white"/>
<stop offset="1" stop-color="#262626"/>
</linearGradient>
<linearGradient id="paint3_linear_125_1433" x1="335.5" y1="-2.18557e-08" x2="335.5" y2="364" gradientUnits="userSpaceOnUse">
<stop stop-color="#262626"/>
<stop offset="0.505" stop-color="#4BC9FF"/>
<stop offset="1" stop-color="#262626"/>
</linearGradient>
<linearGradient id="paint4_linear_125_1433" x1="447.5" y1="-2.18557e-08" x2="447.5" y2="364" gradientUnits="userSpaceOnUse">
<stop stop-color="#262626"/>
<stop offset="0.505" stop-color="white"/>
<stop offset="1" stop-color="#262626"/>
</linearGradient>
<linearGradient id="paint5_linear_125_1433" x1="559.5" y1="-2.18557e-08" x2="559.5" y2="364" gradientUnits="userSpaceOnUse">
<stop stop-color="#262626"/>
<stop offset="0.505" stop-color="white"/>
<stop offset="1" stop-color="#262626"/>
</linearGradient>
<linearGradient id="paint6_linear_125_1433" x1="671.5" y1="-2.18557e-08" x2="671.5" y2="364" gradientUnits="userSpaceOnUse">
<stop stop-color="#262626"/>
<stop offset="0.505" stop-color="#FF00FD"/>
<stop offset="1" stop-color="#262626"/>
</linearGradient>
<linearGradient id="paint7_linear_125_1433" x1="783.5" y1="-2.18557e-08" x2="783.5" y2="364" gradientUnits="userSpaceOnUse">
<stop stop-color="#262626"/>
<stop offset="0.505" stop-color="white"/>
<stop offset="1" stop-color="#262626"/>
</linearGradient>
</defs>
</svg>
