<svg width="40" height="40" viewBox="0 0 40 40" fill="none" xmlns="http://www.w3.org/2000/svg">
<path d="M19.9998 3.3335C15.4048 3.3335 11.6665 7.07183 11.6665 11.6668V16.6668H9.99984C8.1615 16.6668 6.6665 18.1618 6.6665 20.0002V33.3335C6.6665 35.1718 8.1615 36.6668 9.99984 36.6668H29.9998C31.8382 36.6668 33.3332 35.1718 33.3332 33.3335V20.0002C33.3332 18.1618 31.8382 16.6668 29.9998 16.6668H28.3332V11.6668C28.3332 7.07183 24.5948 3.3335 19.9998 3.3335ZM29.9998 20.0002L30.0032 33.3335H9.99984V20.0002H29.9998ZM14.9998 16.6668V11.6668C14.9998 8.91016 17.2432 6.66683 19.9998 6.66683C22.7565 6.66683 24.9998 8.91016 24.9998 11.6668V16.6668H14.9998Z" fill="#F6F7F8"/>
</svg>
