<svg width="40" height="40" viewBox="0 0 40 40" fill="none" xmlns="http://www.w3.org/2000/svg">
<path d="M20.0002 3.3335C10.8102 3.3335 3.3335 10.8102 3.3335 20.0002C3.3335 29.1902 10.8102 36.6668 20.0002 36.6668C29.1902 36.6668 36.6668 29.1902 36.6668 20.0002C36.6668 10.8102 29.1902 3.3335 20.0002 3.3335ZM20.0002 33.3335C12.6485 33.3335 6.66683 27.3518 6.66683 20.0002C6.66683 12.6485 12.6485 6.66683 20.0002 6.66683C27.3518 6.66683 33.3335 12.6485 33.3335 20.0002C33.3335 27.3518 27.3518 33.3335 20.0002 33.3335Z" fill="#F6F7F8"/>
<path d="M16.665 22.6451L12.8333 18.8201L10.48 21.1801L16.6683 27.3551L27.845 16.1784L25.4883 13.8218L16.665 22.6451Z" fill="#F6F7F8"/>
</svg>
