<svg width="50" height="50" viewBox="0 0 50 50" fill="none" xmlns="http://www.w3.org/2000/svg">
<path d="M12.9696 10.0233C12.156 9.20969 10.8369 9.20969 10.0233 10.0233C9.20969 10.8369 9.20969 12.156 10.0233 12.9696L22.0539 25.0002L10.0234 37.0308C9.20982 37.8444 9.20982 39.1635 10.0234 39.9771C10.837 40.7906 12.1561 40.7906 12.9697 39.9771L25.0002 27.9464L37.0308 39.9771C37.8444 40.7906 39.1635 40.7906 39.9771 39.9771C40.7906 39.1635 40.7906 37.8444 39.9771 37.0308L27.9464 25.0002L39.9773 12.9696C40.7908 12.156 40.7908 10.8369 39.9773 10.0233C39.1637 9.20969 37.8446 9.20969 37.031 10.0233L25.0002 22.0539L12.9696 10.0233Z" fill="#F6F7F8"/>
</svg>
