<svg width="66" height="56" viewBox="0 0 66 56" fill="none" xmlns="http://www.w3.org/2000/svg">
<path d="M65.34 49.398H0.66C0.297 49.398 0 49.7281 0 50.1316V55.2664C0 55.6699 0.297 56 0.66 56H65.34C65.703 56 66 55.6699 66 55.2664V50.1316C66 49.7281 65.703 49.398 65.34 49.398ZM4.43025 37.9179L7.7055 41.5398C7.96125 41.824 8.382 41.824 8.63775 41.5398L28.0005 20.0925L36.0525 29.0143C36.5486 29.5606 37.2187 29.8671 37.917 29.8671C38.6153 29.8671 39.2854 29.5606 39.7815 29.0143L61.578 4.88034C61.8337 4.59609 61.8337 4.12845 61.578 3.8442L58.3027 0.213098C58.1787 0.0765817 58.0112 0 57.8366 0C57.6621 0 57.4945 0.0765817 57.3705 0.213098L37.9252 21.7613L29.865 12.8394C29.3689 12.2931 28.6988 11.9867 28.0005 11.9867C27.3022 11.9867 26.6321 12.2931 26.136 12.8394L4.43025 36.8817C4.36854 36.9494 4.31954 37.0301 4.2861 37.119C4.25266 37.208 4.23544 37.3034 4.23544 37.3998C4.23544 37.4962 4.25266 37.5916 4.2861 37.6805C4.31954 37.7695 4.36854 37.8501 4.43025 37.9179Z" fill="#F6F7F8"/>
</svg>
