<svg width="59" height="59" viewBox="0 0 59 59" fill="none" xmlns="http://www.w3.org/2000/svg">
<path d="M10.266 20.2813H15.34V25.3553C15.34 25.488 15.4728 25.5913 15.635 25.5913H19.175C19.3373 25.5913 19.47 25.488 19.47 25.3479V20.2813H24.544C24.6768 20.2813 24.78 20.1485 24.78 19.9863V16.4463C24.78 16.284 24.6768 16.1513 24.5366 16.1513H19.47V11.0773C19.47 10.9445 19.3373 10.8413 19.175 10.8413H15.635C15.4728 10.8413 15.34 10.9445 15.34 11.0773V16.1513H10.266C10.1333 16.1513 10.03 16.284 10.03 16.4463V19.9863C10.03 20.1485 10.1333 20.2813 10.266 20.2813ZM34.456 20.2813H48.734C48.8668 20.2813 48.97 20.1485 48.97 19.9863V16.4463C48.97 16.284 48.8668 16.1513 48.7266 16.1513H34.456C34.3233 16.1513 34.22 16.284 34.22 16.4463V19.9863C34.22 20.1485 34.3233 20.2813 34.456 20.2813ZM34.456 39.825H48.734C48.8668 39.825 48.97 39.6923 48.97 39.53V35.99C48.97 35.8278 48.8668 35.695 48.7266 35.695H34.456C34.3233 35.695 34.22 35.8278 34.22 35.99V39.53C34.22 39.6923 34.3233 39.825 34.456 39.825ZM34.456 47.495H48.734C48.8668 47.495 48.97 47.3623 48.97 47.2V43.66C48.97 43.4978 48.8668 43.365 48.7266 43.365H34.456C34.3233 43.365 34.22 43.4978 34.22 43.66V47.2C34.22 47.3623 34.3233 47.495 34.456 47.495ZM20.0231 41.5213L24.5366 35.9974C24.8538 35.6139 24.5883 35.0313 24.1015 35.0313H20.355C20.1854 35.0313 20.0231 35.105 19.9199 35.2451L17.4124 38.3131L14.9049 35.2451C14.8521 35.1801 14.7859 35.1274 14.7108 35.0904C14.6357 35.0535 14.5534 35.0333 14.4698 35.0313H10.7159C10.2291 35.0313 9.96363 35.6139 10.2808 35.9974L14.7943 41.5213L10.1701 47.1853C9.84563 47.5688 10.1111 48.1514 10.5979 48.1514H14.3444C14.514 48.1514 14.6763 48.0776 14.7795 47.9375L17.3976 44.7294L20.0158 47.9375C20.1264 48.0703 20.2886 48.1514 20.4509 48.1514H24.1974C24.6841 48.1514 24.9496 47.5688 24.6325 47.1853L20.0231 41.5213ZM56.64 0H2.36C1.05463 0 0 1.05463 0 2.36V56.64C0 57.9454 1.05463 59 2.36 59H56.64C57.9454 59 59 57.9454 59 56.64V2.36C59 1.05463 57.9454 0 56.64 0ZM53.985 53.985H5.015V5.015H53.985V53.985Z" fill="#F6F7F8"/>
</svg>
