<svg width="36" height="36" viewBox="0 0 36 36" fill="none" xmlns="http://www.w3.org/2000/svg">
<path fill-rule="evenodd" clip-rule="evenodd" d="M2.25 18C2.25 17.7016 2.36853 17.4154 2.5795 17.2045C2.79048 16.9935 3.07663 16.875 3.375 16.875H29.9093L22.8285 9.79646C22.6173 9.58521 22.4986 9.2987 22.4986 8.99996C22.4986 8.70121 22.6173 8.4147 22.8285 8.20346C23.0397 7.99221 23.3263 7.87354 23.625 7.87354C23.9237 7.87354 24.2103 7.99221 24.4215 8.20346L33.4215 17.2035C33.5263 17.308 33.6094 17.4321 33.6661 17.5688C33.7228 17.7055 33.752 17.852 33.752 18C33.752 18.1479 33.7228 18.2945 33.6661 18.4311C33.6094 18.5678 33.5263 18.692 33.4215 18.7965L24.4215 27.7965C24.2103 28.0077 23.9237 28.1264 23.625 28.1264C23.3263 28.1264 23.0397 28.0077 22.8285 27.7965C22.6173 27.5852 22.4986 27.2987 22.4986 27C22.4986 26.7012 22.6173 26.4147 22.8285 26.2035L29.9093 19.125H3.375C3.07663 19.125 2.79048 19.0064 2.5795 18.7955C2.36853 18.5845 2.25 18.2983 2.25 18Z" fill="white"/>
</svg>
