<svg width="861" height="152" viewBox="0 0 861 152" fill="none" xmlns="http://www.w3.org/2000/svg">
<path d="M85.1953 113.8L119.995 13.8H104.395V9.99999H134.995V13.8H125.595L77.3953 152H60.5953L9.59531 13.8H0.395313V9.99999H65.7953V13.8H51.5953L85.1953 113.8ZM168.141 103H173.941V87.6C173.941 74.9333 173.207 66.4667 171.741 62.2C170.407 57.8 167.741 55.6 163.741 55.6C161.341 55.6 159.141 56.2667 157.141 57.6C155.274 58.8 154.341 60.5333 154.341 62.8C154.341 64.9333 154.741 67.1333 155.541 69.4H160.541C161.607 72.2 162.141 75.6 162.141 79.6C162.141 83.4667 160.474 86.8667 157.141 89.8C153.807 92.6 149.607 94 144.541 94C133.074 94 127.341 88.4667 127.341 77.4C127.341 61 141.274 52.8 169.141 52.8C185.007 52.8 195.941 55.5333 201.941 61C208.074 66.3333 211.141 76.2 211.141 90.6V131.2C211.141 138.133 213.074 141.6 216.941 141.6C221.474 141.6 224.141 134.733 224.941 121L227.941 121.2C227.407 132.933 225.207 141 221.341 145.4C217.474 149.8 211.141 152 202.341 152C186.341 152 177.141 147.067 174.741 137.2C173.007 142.267 170.407 146 166.941 148.4C163.474 150.8 158.407 152 151.741 152C132.007 152 122.141 143.933 122.141 127.8C122.141 118.333 125.874 111.867 133.341 108.4C140.941 104.8 152.541 103 168.141 103ZM160.141 127.6C160.141 134.533 160.474 139 161.141 141C161.941 143 163.341 144 165.341 144C167.474 144 169.407 142.333 171.141 139C173.007 135.533 173.941 130.8 173.941 124.8V106.2H172.541C164.274 106.2 160.141 112.267 160.141 124.4V127.6ZM229.106 -1.19209e-05H278.106V146.4H289.306V150H229.906V146.4H240.906V3.59999H229.106V-1.19209e-05ZM409.211 150H363.611L361.411 135.4C359.278 140.733 356.078 144.867 351.811 147.8C347.678 150.6 341.478 152 333.211 152C312.544 152 302.211 140.867 302.211 118.6V58.4H291.011V54.8H339.411V123.4C339.411 131.4 339.944 136.667 341.011 139.2C342.211 141.733 344.478 143 347.811 143C351.278 143 354.344 140.933 357.011 136.8C359.678 132.667 361.011 126.933 361.011 119.6V58.4H351.811V54.8H398.211V146.4H409.211V150ZM465.905 152C448.705 152 435.771 147.6 427.105 138.8C418.571 129.867 414.305 117.533 414.305 101.8C414.305 85.9333 419.105 73.8 428.705 65.4C438.438 57 450.771 52.8 465.705 52.8C495.971 52.8 510.505 68 509.305 98.4H452.905V106.2C452.905 119.267 454.571 129.133 457.905 135.8C461.238 142.467 467.038 145.8 475.305 145.8C490.771 145.8 500.905 137.533 505.705 121L509.305 121.6C506.771 131.2 502.171 138.667 495.505 144C488.971 149.333 479.105 152 465.905 152ZM453.105 94.4H473.705V84.6C473.705 73.8 473.038 66.4667 471.705 62.6C470.505 58.6 467.971 56.6 464.105 56.6C460.371 56.6 457.571 58.7333 455.705 63C453.971 67.1333 453.105 74.3333 453.105 84.6V94.4ZM592.43 148C598.963 148 603.096 146.8 604.83 144.4C606.696 142 607.63 137.933 607.63 132.2V93.4H594.83V89H652.43V93.4H644.63V149.8H641.63C639.23 146.467 635.83 144.8 631.43 144.8C629.563 144.8 623.963 146 614.63 148.4C605.43 150.8 597.563 152 591.03 152C569.296 152 552.43 146.133 540.43 134.4C528.563 122.667 522.63 105.067 522.63 81.6C522.63 58 528.83 39.8 541.23 27C553.763 14.2 570.563 7.79999 591.63 7.79999C599.763 7.79999 607.896 8.86666 616.03 11C624.296 13 629.096 14 630.43 14C631.763 14 632.763 13.7333 633.43 13.2C634.096 12.5333 634.83 11.4667 635.63 9.99999H637.83L639.43 53.4H635.83C629.296 40.4667 622.696 30.3333 616.03 23C609.496 15.5333 602.163 11.8 594.03 11.8C573.63 11.8 563.43 31.7333 563.43 71.6V87.4C563.43 107.4 565.896 122.533 570.83 132.8C575.896 142.933 583.096 148 592.43 148ZM707.984 103H713.784V87.6C713.784 74.9333 713.051 66.4667 711.584 62.2C710.251 57.8 707.584 55.6 703.584 55.6C701.184 55.6 698.984 56.2667 696.984 57.6C695.118 58.8 694.184 60.5333 694.184 62.8C694.184 64.9333 694.584 67.1333 695.384 69.4H700.384C701.451 72.2 701.984 75.6 701.984 79.6C701.984 83.4667 700.318 86.8667 696.984 89.8C693.651 92.6 689.451 94 684.384 94C672.918 94 667.184 88.4667 667.184 77.4C667.184 61 681.118 52.8 708.984 52.8C724.851 52.8 735.784 55.5333 741.784 61C747.918 66.3333 750.984 76.2 750.984 90.6V131.2C750.984 138.133 752.918 141.6 756.784 141.6C761.318 141.6 763.984 134.733 764.784 121L767.784 121.2C767.251 132.933 765.051 141 761.184 145.4C757.318 149.8 750.984 152 742.184 152C726.184 152 716.984 147.067 714.584 137.2C712.851 142.267 710.251 146 706.784 148.4C703.318 150.8 698.251 152 691.584 152C671.851 152 661.984 143.933 661.984 127.8C661.984 118.333 665.718 111.867 673.184 108.4C680.784 104.8 692.384 103 707.984 103ZM699.984 127.6C699.984 134.533 700.318 139 700.984 141C701.784 143 703.184 144 705.184 144C707.318 144 709.251 142.333 710.984 139C712.851 135.533 713.784 130.8 713.784 124.8V106.2H712.384C704.118 106.2 699.984 112.267 699.984 124.4V127.6ZM769.389 38.4C769.389 29.7333 773.322 22.4667 781.189 16.6C789.056 10.7333 800.256 7.79999 814.789 7.79999C829.456 7.79999 840.722 10.6 848.589 16.2C856.589 21.8 860.589 30.0667 860.589 41C860.589 48.2 858.789 54.6 855.189 60.2C851.722 65.6667 846.856 71.2667 840.589 77L810.389 103.8V115.4H805.389V73.4C805.389 71.1333 806.122 69.2667 807.589 67.8L819.989 55.2C823.856 51.3333 826.522 47.7333 827.989 44.4C829.456 40.9333 830.189 36.4667 830.189 31C830.189 18.0667 824.189 11.6 812.189 11.6C806.456 11.6 802.256 13.1333 799.589 16.2C796.922 19.2667 795.589 22.2 795.589 25C795.589 27.8 795.989 30.2667 796.789 32.4H803.189C804.256 35.2 804.789 38.6 804.789 42.6C804.789 46.4667 803.122 49.8667 799.789 52.8C796.456 55.6 792.056 57 786.589 57C781.122 57 776.856 55.2667 773.789 51.8C770.856 48.2 769.389 43.7333 769.389 38.4ZM807.389 152C802.456 152 798.722 150.6 796.189 147.8C793.789 144.867 792.589 141.267 792.589 137C792.589 132.6 793.922 129 796.589 126.2C799.256 123.267 802.922 121.8 807.589 121.8C812.256 121.8 815.989 123.067 818.789 125.6C821.589 128 822.989 131.6 822.989 136.4C822.989 141.2 821.656 145 818.989 147.8C816.322 150.6 812.456 152 807.389 152Z" fill="#F6F7F8"/>
</svg>
